<?xml version="1.0" encoding="utf-8"?>
<!-- Generator: Adobe Illustrator 16.0.3, SVG Export Plug-In . SVG Version: 6.00 Build 0)  -->
<!DOCTYPE svg PUBLIC "-//W3C//DTD SVG 1.1//EN" "http://www.w3.org/Graphics/SVG/1.1/DTD/svg11.dtd">
<svg version="1.1" id="Layer_1" xmlns="http://www.w3.org/2000/svg" xmlns:xlink="http://www.w3.org/1999/xlink" x="0px" y="0px"
	 width="750px" height="150px" viewBox="0 0 750 150" enable-background="new 0 0 750 150" xml:space="preserve">
<g>
	<g>
		<path fill="#003056" d="M227.215,70.307l-2.304,18.72c-3.805-1.231-7.566-1.844-11.263-1.844c-7.125,0-12.695,1.354-16.69,4.055
			c-3.996,2.715-6.191,5.564-6.593,8.588c-0.401,3.007-0.597,4.758-0.597,5.253c0,3.932,1.447,7.139,4.343,9.589
			c2.881,2.46,6.783,3.692,11.713,3.692c2.205,0,4.406-0.323,6.587-0.969c2.186-0.646,4.533-1.643,7.057-2.997l2.401-1.385
			l-2.304,18.911c-1.849,0.871-4.044,1.736-6.602,2.63c-2.548,0.886-5.067,1.561-7.565,2.025c-2.489,0.465-5.18,0.695-8.069,0.695
			c-9.654,0-17.464-2.721-23.425-8.163c-5.972-5.442-8.949-12.402-8.949-20.896c0-1.041,0-2.121,0-3.232
			c0.181-0.982,0.719-4.376,1.608-10.186c0.896-5.815,5.36-11.645,13.381-17.519c8.024-5.883,18.862-8.817,32.516-8.817
			C216.764,68.458,221.688,69.075,227.215,70.307z"/>
		<path fill="#003056" d="M228.877,102.823c1.047-8.543,4.138-15.775,9.263-21.694c5.144-5.927,10.52-9.541,16.148-10.831
			c5.623-1.281,10.099-1.932,13.418-1.932c8.856,0,16.006,2.685,21.45,8.068c5.442,5.37,8.166,12.413,8.166,21.143
			c0,1.462-0.063,2.596-0.186,3.398c-0.122,0.802-0.465,3.448-1.017,7.927c-0.553,4.475-3.408,9.684-8.578,15.606
			c-5.164,5.933-10.544,9.535-16.138,10.827c-5.6,1.28-10.055,1.937-13.386,1.937c-8.915,0-16.045-2.67-21.391-8.01
			c-5.35-5.341-8.029-12.442-8.029-21.284C228.599,106.32,228.696,104.603,228.877,102.823z M252.684,102.871
			c-0.068,0.544-0.118,1.126-0.147,1.742c-0.024,0.62-0.039,1.085-0.039,1.39c0,0.733,0.039,1.505,0.137,2.307
			c0.083,0.793,0.328,1.957,0.686,3.458c0.371,1.507,1.291,2.847,2.772,4.015c1.478,1.16,3.188,1.742,5.164,1.742
			c1.414,0,2.983-0.47,4.705-1.424s3.247-2.538,4.567-4.749c1.315-2.21,2.123-4.317,2.392-6.322
			c0.278-1.992,0.421-3.292,0.421-3.878c0-0.587,0-1.027,0-1.325c0-1.668-0.24-3.433-0.689-5.316
			c-0.465-1.868-1.438-3.393-2.905-4.554c-1.482-1.168-3.169-1.756-5.086-1.756c-1.467,0-3.076,0.456-4.788,1.389
			c-1.731,0.916-3.247,2.524-4.568,4.789C253.983,96.652,253.104,99.489,252.684,102.871z"/>
		<path fill="#003056" d="M302.668,106.933l4.611-37.276h24.541l-4.612,37.729c-0.068,0.305-0.098,0.769-0.098,1.389
			c0,2.514,0.87,4.602,2.587,6.261c1.712,1.671,3.933,2.489,6.642,2.489c0.743,0,1.945-0.166,3.638-0.495
			c1.697-0.342,3.379-1.423,5.075-3.236c1.693-1.81,2.686-3.957,2.999-6.407l4.611-37.729h24.535l-4.519,37.276
			c-1.046,8.352-4.104,15.086-9.179,20.195c-5.072,5.107-10.114,8.006-15.132,8.72c-5.013,0.695-8.465,1.116-10.372,1.243
			c-1.912,0.122-3.647,0.181-5.258,0.181c-9.951,0-17.517-2.27-22.642-6.783c-5.131-4.51-7.708-10.798-7.708-18.858
			C302.389,110.149,302.482,108.59,302.668,106.933z"/>
		<path fill="#003056" d="M444.083,70.581l-2.122,17.796l-3.43-0.826c-4.361-0.979-8.479-1.473-12.352-1.473
			c-5.419,0-9.868,0.994-13.374,2.979c-3.497,1.986-5.82,4.255-6.965,6.788c-1.14,2.538-1.829,4.427-2.079,5.688
			c-0.245,1.246-0.367,2.488-0.367,3.712c0,3.789,1.242,6.952,3.737,9.496c2.493,2.538,5.73,3.805,9.727,3.805h2.401h0.465h0.465
			l0.557-4.338h-6.748l2.038-16.598h27.949l-4.436,36.242l-4.147,0.832c-9.032,1.727-16.388,2.587-22.04,2.587
			c-1.854,0-3.242-0.059-4.201-0.181c-0.953-0.127-3.81-0.485-8.572-1.066c-4.773-0.588-9.684-3.331-14.721-8.26
			c-5.042-4.906-7.561-11.181-7.561-18.809c0-4.989,0.934-9.688,2.817-14.114c1.868-4.43,4.381-8.698,7.517-12.826
			c3.129-4.114,8.068-7.396,14.803-9.82c6.738-2.436,15.454-3.644,26.143-3.644c2.402,0,4.607,0.151,6.598,0.465
			C438.189,69.319,440.816,69.843,444.083,70.581z"/>
		<path fill="#003056" d="M440.654,136.072l35.988-66.416h24.159l19.463,66.416h-26.657l-2.122-10.793h-19.181l-4.791,10.793
			H440.654z M477.749,110.344h11.887l-2.859-13.746l-0.542-1.94c-0.069-0.313-0.123-0.744-0.192-1.296
			c-0.059-0.557-0.059-1.047,0-1.468c-0.181,1.041-0.455,1.96-0.831,2.764l-1.1,1.94L477.749,110.344z"/>
		<path fill="#003056" d="M521.645,136.072l8.118-66.416h37.724c5.662,0,10.109,1.506,13.375,4.519
			c3.263,3.021,4.886,7.041,4.886,12.084c0,0.924-0.196,3.364-0.596,7.335c-0.407,3.962-3.796,7.02-10.193,9.185l-2.396,0.543
			l2.028,0.645c2.774,1.112,4.951,3.02,6.545,5.723c1.604,2.709,3.511,7.967,5.727,15.781l3.048,10.602h-24.18l-1.188-5.344
			l-1.378-5.258c-1.858-5.971-3.508-9.922-4.936-11.869c-1.457-1.931-3.472-3.057-6.049-3.354h-1.197h-1.674l-3.129,25.825H521.645z
			 M550.703,98.529h3.036c1.722,0,3.188-0.439,4.382-1.339c1.214-0.886,2.045-2.142,2.489-3.731c0.465-1.608,0.695-3.013,0.695-4.25
			c0-3.864-1.903-5.8-5.713-5.8h-2.948L550.703,98.529z"/>
	</g>
	<g>
		<path fill="#6DABE4" d="M593.406,136.072V91.741h13.275v34.801h17.459v9.53H593.406z"/>
		<path fill="#6DABE4" d="M626.547,97.02c0-2.172,0.617-4.036,1.84-5.596c1.236-1.55,2.685-2.344,4.367-2.344
			c1.727,0,3.197,0.721,4.431,2.158c1.232,1.438,1.843,3.179,1.843,5.227c0,1.399-0.567,2.588-1.721,3.575
			c-1.141,0.978-2.558,1.473-4.241,1.473c-1.682,0-3.14-0.416-4.37-1.229C627.472,99.463,626.747,98.378,626.547,97.02z
			 M626.547,136.072v-33.268h12.417v33.268H626.547z"/>
		<path fill="#6DABE4" d="M704.279,136.072V91.741h13.283v21.513c0.205-0.725,0.396-1.305,0.581-1.711
			c0.182-0.416,0.441-0.807,0.764-1.179l14.52-18.623h14.261l-17.215,21.513L748,136.072h-15.747l-13.346-18.089
			c-0.322-0.41-0.592-0.86-0.792-1.399c-0.211-0.537-0.396-1.109-0.553-1.725v21.213H704.279z"/>
		<polygon fill-rule="evenodd" clip-rule="evenodd" fill="#003056" points="659.303,113.146 659.303,136.215 664.742,130.645 
			670.894,142.631 675.773,142.631 669.001,129.853 677.827,129.91 		"/>
		<polygon fill-rule="evenodd" clip-rule="evenodd" fill="#6DABE4" points="644.319,136.072 657.299,136.072 657.299,108.369 
			687.972,136.072 697.875,136.072 697.875,91.741 686.729,91.741 686.729,119.476 656.125,91.741 644.319,91.741 		"/>
	</g>
</g>
<g>
	<path fill="#003056" d="M222.065,35.814L238.72,51.32l1.515,1.441c0.309,0.309,0.622,0.513,0.939,0.61s0.843,0.146,1.575,0.146
		v1.539c-1.335-0.115-2.507-0.171-3.516-0.171c-1.059,0-2.215,0.057-3.468,0.171L218.94,39.086c-0.57-0.537-0.92-0.806-1.05-0.806
		c-0.343,0-0.513,0.318-0.513,0.953v7.448c0,3.63,0.073,5.616,0.221,5.958c0.245,0.586,1.129,0.879,2.65,0.879h1.841v1.539
		c-2.658-0.115-5.015-0.171-7.069-0.171c-2.152,0-4.469,0.057-6.947,0.171v-1.539h1.979c1.302,0,2.084-0.24,2.344-0.72
		c0.261-0.479,0.391-2.552,0.391-6.214V30.246c0-4.477-0.13-6.996-0.391-7.558c-0.26-0.562-1.042-0.842-2.344-0.842h-1.979v-1.539
		c2.984,0.114,5.146,0.171,6.482,0.171c0.962,0,3.474-0.057,7.534-0.171v1.539l-1.938,0.073c-1.113,0.049-1.817,0.2-2.111,0.452
		c-0.295,0.252-0.479,0.753-0.553,1.502c-0.073,0.749-0.109,2.906-0.109,6.471v6.594h0.341c1.335-1.091,2.482-2.088,3.443-2.992
		c0.961-0.903,2.54-2.486,4.737-4.749l6.936-7.18v-1.709c1.791,0.114,3.272,0.171,4.444,0.171c1.221,0,2.572-0.057,4.054-0.171
		v1.539h-1.318c-1.173,0-2.165,0.224-2.979,0.671s-2.694,2.023-5.641,4.725L222.065,35.814z"/>
	<path fill="#003056" d="M256.581,38.452v5.993l0.024,3.449c0,2.152,0.024,3.726,0.073,4.721c2.381,0.179,4.932,0.269,7.655,0.269
		c1.826,0,3.357-0.081,4.598-0.244c0.799-0.098,1.646-0.309,2.543-0.635c0.407-1.433,0.823-3.224,1.248-5.372h1.611
		c-0.439,3.576-0.659,5.96-0.659,7.151l0.049,1.103c-1.873,0.163-3.712,0.244-5.519,0.244l-3.835-0.073
		c-4.232-0.115-7.342-0.171-9.327-0.171c-1.905,0-4.438,0.057-7.596,0.171v-1.539h0.758c1.416,0,2.308-0.138,2.674-0.415
		c0.366-0.276,0.61-0.928,0.732-1.953c0.122-1.026,0.184-3.289,0.184-6.789V30.955c0-2.198-0.054-3.997-0.159-5.397
		c-0.106-1.4-0.22-2.234-0.342-2.502c-0.122-0.269-0.297-0.477-0.525-0.623c-0.228-0.146-0.928-0.277-2.1-0.391l-1.881-0.195v-1.539
		h2.638l2.589,0.085c1.448,0.057,2.547,0.085,3.296,0.085l9.377-0.143l4.445-0.028c1.514-0.016,3.044,0.041,4.591,0.171
		c-0.619,1.934-0.961,4.449-1.026,7.546h-1.66c0-1.791-0.09-3.28-0.269-4.469c-1.921-0.717-4.282-1.075-7.082-1.075
		c-2.23,0-4.566,0.098-7.008,0.292c0.016,1.528,0,3.055-0.049,4.583l-0.049,3.753v4.949c1.611,0.114,3.036,0.17,4.273,0.17
		c3.874,0,6.067-0.134,6.581-0.403c0.513-0.269,0.77-1.103,0.77-2.503v-1.587h1.66c-0.114,2.458-0.171,4.42-0.171,5.885
		c0,1.547,0.057,3.37,0.171,5.47h-1.66v-1.417c0-1.563-0.306-2.519-0.916-2.869s-2.764-0.525-6.459-0.525
		C259.463,38.28,258.046,38.337,256.581,38.452z"/>
	<path fill="#003056" d="M304.167,43.335H290.04l-1.655,3.931c-1.091,2.605-1.637,4.201-1.637,4.786
		c0,0.375,0.102,0.644,0.306,0.806c0.203,0.163,0.721,0.293,1.551,0.391l2.345,0.269v1.539c-1.563-0.115-3.321-0.171-5.275-0.171
		c-2.344,0-4.403,0.057-6.178,0.171v-1.539l0.732-0.024c1.139-0.033,1.876-0.15,2.21-0.354s0.688-0.704,1.063-1.502
		c1.155-2.344,2.336-4.875,3.541-7.594l6.715-15.213c1.791-4.037,3.012-6.968,3.663-8.792h1.66l12.356,28.742
		c0.83,1.954,1.384,3.13,1.661,3.529c0.276,0.399,0.594,0.684,0.952,0.854c0.358,0.171,1.164,0.29,2.417,0.354v1.539
		c-2.116-0.115-4.135-0.171-6.056-0.171c-1.791,0-4.176,0.057-7.155,0.171v-1.539l2.418-0.146c0.863-0.064,1.376-0.154,1.538-0.269
		c0.245-0.179,0.366-0.407,0.366-0.684c0-0.293-0.244-1.058-0.732-2.295L304.167,43.335z M290.95,41.333h12.303l-6.147-14.67
		L290.95,41.333z"/>
	<path fill="#003056" d="M328.003,25.817v16.88c0,3.843,0.074,6.522,0.222,8.037c0.114,1.156,0.306,1.86,0.576,2.113
		c0.27,0.253,1.052,0.436,2.345,0.55l1.571,0.122v1.539c-1.779-0.115-3.386-0.171-4.821-0.171c-0.995,0-3.279,0.057-6.852,0.171
		v-1.539h1.758c1.058,0,1.75-0.146,2.075-0.439c0.326-0.293,0.529-0.871,0.611-1.734c0.179-1.791,0.269-4.225,0.269-7.302V31.907
		c0-2.279-0.024-4.533-0.073-6.764c-0.033-0.944-0.159-1.591-0.379-1.941c-0.22-0.35-0.541-0.664-0.964-0.94
		c-0.425-0.276-1.019-0.415-1.783-0.415h-1.514v-1.539c2.067,0.114,3.646,0.171,4.737,0.171c1.172,0,2.458-0.057,3.858-0.171
		c1.611,1.97,3.129,3.887,4.554,5.751c1.425,1.864,2.902,3.74,4.433,5.629l8.352,10.256c3.012,3.68,5.185,6.235,6.52,7.667V33.934
		c0-6.561-0.118-10.147-0.354-10.757c-0.236-0.61-1.177-0.997-2.821-1.16l-1.831-0.17v-1.539c2.621,0.114,4.656,0.171,6.104,0.171
		c1.515,0,3.468-0.057,5.861-0.171v1.539h-1.881c-1.514,0-2.385,0.505-2.612,1.514c-0.146,0.667-0.22,4.233-0.22,10.695v11.014
		c0,2.963,0.13,6.504,0.391,10.623c-2.214-0.342-3.5-0.591-3.858-0.745c-0.358-0.155-0.7-0.411-1.025-0.769
		c-1.808-2.003-3.704-4.227-5.69-6.669L328.003,25.817z"/>
	<path fill="#003056" d="M379.963,21.846v-1.539c3.337,0.114,5.764,0.171,7.277,0.171c1.596,0,3.939-0.057,7.033-0.171v1.539h-1.783
		c-1.53,0-2.45,0.293-2.76,0.879c-0.31,0.586-0.463,3.24-0.463,7.961v9.572c0,3.5,0.19,5.934,0.573,7.302
		c0.382,1.367,1.371,2.524,2.968,3.467c1.595,0.945,3.727,1.417,6.397,1.417c2.751,0,5.071-0.504,6.959-1.514
		c1.303-0.7,2.254-1.786,2.857-3.26c0.602-1.473,0.903-4.27,0.903-8.388v-9.206c0-4.265-0.191-6.704-0.574-7.314
		c-0.382-0.61-1.438-0.916-3.162-0.916h-1.27v-1.539c3.376,0.114,5.522,0.171,6.436,0.171c1.484,0,3.328-0.057,5.53-0.171v1.539
		h-1.67c-1.293,0-2.123,0.346-2.491,1.038c-0.368,0.692-0.552,3.122-0.552,7.29v9.157c0,4.184-0.207,7.005-0.622,8.461
		c-0.415,1.457-1.174,2.771-2.272,3.944c-1.099,1.172-2.563,2.1-4.395,2.784c-1.832,0.684-3.985,1.025-6.459,1.025
		c-2.556,0-4.795-0.305-6.716-0.916s-3.367-1.363-4.334-2.259c-0.97-0.895-1.67-1.99-2.101-3.285
		c-0.432-1.294-0.647-3.496-0.647-6.605l0.05-4.64v-7.448c0-4.591-0.135-7.163-0.403-7.717c-0.269-0.553-1.127-0.83-2.577-0.83
		H379.963z"/>
	<path fill="#003056" d="M428.471,25.817v16.88c0,3.843,0.073,6.522,0.221,8.037c0.115,1.156,0.307,1.86,0.576,2.113
		c0.271,0.253,1.052,0.436,2.344,0.55l1.572,0.122v1.539c-1.779-0.115-3.386-0.171-4.82-0.171c-0.996,0-3.28,0.057-6.853,0.171
		v-1.539h1.758c1.059,0,1.751-0.146,2.076-0.439c0.325-0.293,0.529-0.871,0.61-1.734c0.179-1.791,0.269-4.225,0.269-7.302V31.907
		c0-2.279-0.024-4.533-0.073-6.764c-0.033-0.944-0.158-1.591-0.379-1.941c-0.22-0.35-0.541-0.664-0.964-0.94
		c-0.424-0.276-1.019-0.415-1.783-0.415h-1.514v-1.539c2.067,0.114,3.646,0.171,4.738,0.171c1.171,0,2.457-0.057,3.857-0.171
		c1.611,1.97,3.129,3.887,4.554,5.751c1.425,1.864,2.902,3.74,4.433,5.629l8.352,10.256c3.012,3.68,5.185,6.235,6.52,7.667V33.934
		c0-6.561-0.118-10.147-0.354-10.757c-0.235-0.61-1.176-0.997-2.819-1.16l-1.831-0.17v-1.539c2.621,0.114,4.655,0.171,6.104,0.171
		c1.515,0,3.469-0.057,5.861-0.171v1.539h-1.881c-1.514,0-2.385,0.505-2.611,1.514c-0.147,0.667-0.221,4.233-0.221,10.695v11.014
		c0,2.963,0.131,6.504,0.391,10.623c-2.214-0.342-3.5-0.591-3.858-0.745c-0.357-0.155-0.7-0.411-1.025-0.769
		c-1.808-2.003-3.703-4.227-5.689-6.669L428.471,25.817z"/>
	<path fill="#003056" d="M465.965,53.518h1.537c1.515,0,2.423-0.366,2.724-1.099c0.301-0.733,0.452-4.241,0.452-10.525v-8.278
		c0-6.512-0.131-10.102-0.391-10.769c-0.261-0.668-1.042-1.001-2.345-1.001h-1.978v-1.539c2.707,0.114,5.381,0.171,8.023,0.171
		c2.202,0,4.198-0.057,5.992-0.171v1.539h-1.889c-1.163,0-1.892,0.139-2.185,0.415c-0.296,0.277-0.467,0.977-0.516,2.1
		c-0.083,1.743-0.123,4.844-0.123,9.305v8.424c0,6.333,0.139,9.821,0.417,10.464c0.277,0.644,1.169,0.964,2.675,0.964h1.62v1.539
		c-2.005-0.115-4.191-0.171-6.556-0.171c-2.756,0-5.243,0.057-7.46,0.171V53.518z"/>
	<path fill="#003056" d="M500.723,55.447c-0.731-2.181-1.48-4.225-2.246-6.129l-8.742-21.856c-1.254-3.158-1.986-4.884-2.199-5.177
		c-0.211-0.293-0.911-0.439-2.098-0.439h-1.003v-1.539c2.545,0.114,4.709,0.171,6.49,0.171c1.881,0,4.136-0.057,6.764-0.171v1.539
		h-2.411c-0.827,0-1.362,0.078-1.604,0.234c-0.243,0.156-0.364,0.398-0.364,0.726c0,0.214,0.04,0.452,0.121,0.714l3.159,8.444
		l6.646,16.942l6.457-16.154c2.159-5.389,3.237-8.542,3.237-9.458c0-0.74-0.445-1.126-1.337-1.158l-0.999-0.073l-2.097-0.217v-1.539
		c2.16,0.114,3.938,0.171,5.333,0.171c1.462,0,3.295-0.057,5.502-0.171v1.539h-0.978c-0.781,0-1.348,0.183-1.696,0.549
		c-0.352,0.366-0.981,1.665-1.893,3.895l-8.23,20.098c-1.546,3.777-2.646,6.797-3.296,9.06H500.723z"/>
	<path fill="#003056" d="M533.53,38.452v5.993l0.022,3.449c0,2.152,0.024,3.726,0.074,4.721c2.38,0.179,4.932,0.269,7.654,0.269
		c1.826,0,3.358-0.081,4.599-0.244c0.799-0.098,1.646-0.309,2.543-0.635c0.408-1.433,0.823-3.224,1.247-5.372h1.611
		c-0.439,3.576-0.659,5.96-0.659,7.151l0.049,1.103c-1.871,0.163-3.711,0.244-5.518,0.244l-3.835-0.073
		c-4.231-0.115-7.342-0.171-9.328-0.171c-1.904,0-4.436,0.057-7.595,0.171v-1.539h0.758c1.416,0,2.308-0.138,2.674-0.415
		c0.366-0.276,0.61-0.928,0.731-1.953c0.123-1.026,0.184-3.289,0.184-6.789V30.955c0-2.198-0.053-3.997-0.158-5.397
		c-0.105-1.4-0.221-2.234-0.342-2.502c-0.123-0.269-0.297-0.477-0.525-0.623c-0.228-0.146-0.928-0.277-2.099-0.391l-1.881-0.195
		v-1.539h2.637l2.588,0.085c1.449,0.057,2.549,0.085,3.298,0.085l9.377-0.143l4.443-0.028c1.515-0.016,3.045,0.041,4.591,0.171
		c-0.619,1.934-0.96,4.449-1.025,7.546h-1.66c0-1.791-0.09-3.28-0.27-4.469c-1.921-0.717-4.281-1.075-7.081-1.075
		c-2.23,0-4.566,0.098-7.008,0.292c0.016,1.528,0,3.055-0.05,4.583l-0.047,3.753v4.949c1.61,0.114,3.036,0.17,4.272,0.17
		c3.875,0,6.068-0.134,6.58-0.403c0.514-0.269,0.771-1.103,0.771-2.503v-1.587h1.66c-0.114,2.458-0.17,4.42-0.17,5.885
		c0,1.547,0.056,3.37,0.17,5.47h-1.66v-1.417c0-1.563-0.306-2.519-0.916-2.869s-2.764-0.525-6.46-0.525
		C536.411,38.28,534.993,38.337,533.53,38.452z"/>
	<path fill="#003056" d="M574.759,37.426c1.596,2.295,3.573,4.965,5.934,8.01l4.689,6.081c0.83,1.042,1.382,1.636,1.66,1.782
		c0.276,0.147,0.562,0.22,0.854,0.22h0.636v1.539c-1.353-0.115-2.533-0.171-3.541-0.171c-0.929,0-1.905,0.057-2.931,0.171
		l-8.646-11.673c-1.611-2.149-3.337-4.249-5.177-6.3l0.244-0.831c0.945,0.082,1.646,0.123,2.101,0.123c2.718,0,4.847-0.7,6.386-2.1
		c1.539-1.4,2.308-3.272,2.308-5.617c0-2.1-0.651-3.74-1.954-4.921c-1.302-1.18-3.183-1.771-5.642-1.771
		c-1.708,0-3.427,0.318-5.152,0.953c-0.195,2.588-0.292,5.356-0.292,8.303v11.795c0,5.747,0.138,8.934,0.415,9.56
		c0.276,0.627,1.172,0.94,2.687,0.94h1.905v1.539c-2.704-0.115-4.941-0.171-6.716-0.171c-1.4,0-3.932,0.057-7.596,0.171v-1.539
		h1.833c1.398,0,2.229-0.305,2.49-0.916c0.261-0.61,0.391-3.822,0.391-9.633V31.223c0-5.046-0.151-7.871-0.452-8.474
		c-0.303-0.602-1.282-0.903-2.942-0.903h-1.319v-1.539c3.029,0.114,5.34,0.171,6.936,0.171c1.075,0,2.621-0.041,4.641-0.122
		c2.343-0.081,4.027-0.122,5.054-0.122c2.817,0,4.953,0.297,6.411,0.892c1.456,0.594,2.563,1.453,3.321,2.576
		c0.756,1.124,1.134,2.467,1.134,4.03c0,2.295-0.826,4.322-2.478,6.08C580.298,35.57,577.9,36.775,574.759,37.426z"/>
	<path fill="#003056" d="M614.842,21.944c-0.456,1.693-0.7,3.939-0.732,6.74h-1.685V26.73c0-1.27-0.171-2.132-0.514-2.588
		c-0.342-0.456-1.233-0.94-2.674-1.453s-2.959-0.77-4.555-0.77c-2.604,0-4.652,0.659-6.142,1.975
		c-1.488,1.317-2.234,3.007-2.234,5.072c0,1.3,0.307,2.417,0.916,3.352c0.611,0.935,1.433,1.609,2.467,2.024
		c1.034,0.414,3.228,0.78,6.58,1.096c3.354,0.326,5.622,0.758,6.802,1.295c1.181,0.538,2.124,1.401,2.832,2.59
		c0.709,1.188,1.063,2.598,1.063,4.227c0,3.273-1.366,6.091-4.102,8.453s-6.384,3.542-10.941,3.542
		c-1.562,0-3.138-0.159-4.725-0.476c-1.586-0.317-3.187-0.785-4.798-1.404c0.293-1.953,0.431-4.46,0.415-7.521h1.66v1.221
		c0,1.58,0.081,2.556,0.244,2.931c0.162,0.375,0.546,0.773,1.147,1.196c0.896,0.635,1.961,1.12,3.199,1.453
		c1.236,0.334,2.572,0.501,4.006,0.501c3.076,0,5.452-0.725,7.129-2.174c1.678-1.448,2.516-3.288,2.516-5.519
		c0-1.302-0.285-2.405-0.855-3.309c-0.569-0.903-1.366-1.575-2.392-2.014c-1.026-0.44-2.922-0.773-5.69-1.001
		c-3.679-0.293-6.178-0.732-7.497-1.319c-1.317-0.586-2.352-1.51-3.102-2.771c-0.749-1.261-1.122-2.828-1.122-4.701
		c0-3.175,1.147-5.771,3.442-7.79c2.296-2.019,5.471-3.028,9.523-3.028c1.629,0,3.261,0.175,4.897,0.525
		C611.558,20.694,613.196,21.228,614.842,21.944z"/>
	<path fill="#003056" d="M621.64,53.518h1.539c1.513,0,2.421-0.366,2.724-1.099c0.301-0.733,0.45-4.241,0.45-10.525v-8.278
		c0-6.512-0.131-10.102-0.391-10.769c-0.261-0.668-1.042-1.001-2.343-1.001h-1.979v-1.539c2.707,0.114,5.383,0.171,8.024,0.171
		c2.201,0,4.199-0.057,5.993-0.171v1.539h-1.891c-1.161,0-1.89,0.139-2.185,0.415c-0.294,0.277-0.467,0.977-0.516,2.1
		c-0.081,1.743-0.123,4.844-0.123,9.305v8.424c0,6.333,0.139,9.821,0.417,10.464c0.279,0.644,1.171,0.964,2.677,0.964h1.62v1.539
		c-2.007-0.115-4.191-0.171-6.556-0.171c-2.757,0-5.244,0.057-7.462,0.171V53.518z"/>
	<path fill="#003056" d="M657.4,22.53c-0.18,2.442-0.27,5.015-0.27,7.716v13.919c0,5.177,0.131,8.03,0.391,8.56
		c0.261,0.529,1.189,0.793,2.784,0.793h1.831v1.539c-2.881-0.115-5.322-0.171-7.326-0.171c-2.018,0-4.442,0.057-7.276,0.171v-1.539
		h2.051c1.075,0,1.774-0.142,2.101-0.427c0.325-0.285,0.529-0.842,0.61-1.672c0.163-1.905,0.244-4.363,0.244-7.375V30.1
		c0-2.751-0.057-5.274-0.171-7.57h-2.485c-4.011,0-6.22,0.094-6.626,0.281c-0.406,0.188-0.674,0.916-0.804,2.186l-0.341,3.272
		h-1.538l0.048-2.906c0-1.172-0.097-2.857-0.292-5.055c8.791,0.114,13.959,0.171,15.506,0.171l13.503-0.171
		c-0.308,2.751-0.486,5.405-0.536,7.96h-1.539l-0.243-3.199c-0.098-1.106-0.237-1.762-0.415-1.965
		c-0.179-0.204-0.578-0.33-1.197-0.379c-1.791-0.13-3.826-0.195-6.104-0.195H657.4z"/>
	<path fill="#003056" d="M690.791,37.865c0.994-1.5,2.564-4.108,4.713-7.825l5.594-9.732h3.783v0.611
		c-1.986,2.233-4.419,5.599-7.302,10.098c-2.881,4.499-4.606,7.515-5.177,9.047c-0.195,0.537-0.292,1.91-0.292,4.119
		c0,2.942,0.072,5.274,0.22,6.996c0.097,0.927,0.264,1.483,0.5,1.67c0.235,0.187,1.071,0.345,2.503,0.475l1.855,0.195v1.539
		c-2.837-0.115-5.055-0.171-6.652-0.171l-7.877,0.171v-1.539h2.087c1.389,0,2.225-0.284,2.503-0.853
		c0.277-0.568,0.417-3.136,0.417-7.702c0-1.333-0.041-2.786-0.122-4.363c-2.1-3.853-4.038-7.186-5.812-9.998
		c-1.774-2.813-3.273-4.869-4.494-6.17c-0.667-0.715-1.249-1.187-1.745-1.415c-0.498-0.227-1.331-0.341-2.503-0.341v-1.539
		c0.667-0.13,1.978-0.391,3.932-0.781l1.928-0.391c0.749,0.277,1.353,0.626,1.809,1.05c0.813,0.765,2.058,2.515,3.735,5.25
		C685.68,28.366,687.812,32.232,690.791,37.865z"/>
</g>
<path fill="#003056" d="M1.057,34.438V8.767h52.581v18.424c-1.543,0.508-3.124,0.917-4.698,1.352
	c-2.84,0.783-5.774,1.648-8.212,3.361c-0.994,0.699-1.979,1.406-2.937,2.154c-1.261,0.984-2.482,2.017-3.687,3.071
	c-1.934,1.692-3.823,3.454-5.657,5.256c-2.383,2.343-4.672,4.776-6.861,7.3c-2.169,2.5-4.211,5.114-6.111,7.824
	c-1.905,2.719-3.689,5.548-5.22,8.496c-0.756,1.458-1.474,2.938-2.139,4.44c-0.656,1.483-1.242,2.993-1.781,4.523
	c-0.049,0.138-0.097,0.275-0.146,0.413V51.125c0-4.493-0.295-8.115-0.883-10.869C4.718,37.501,3.301,35.562,1.057,34.438
	 M84.925,8.885c0.453-0.194,0.913-0.374,1.376-0.542c1.419-0.513,3.306-1.03,4.847-1.368c-1.443-3.283-3.528-7.063-5.482-7.077
	c-1.152-0.007-0.944,3.28-1.522,5.879c-0.077,0.347-0.161,0.694-0.251,1.045c0.101,0.184,0.2,0.369,0.296,0.554
	C84.448,7.872,84.692,8.375,84.925,8.885 M136.658,138.637c0.216,3.422-1.017,9.075-4.756,10.15
	c-0.289,0.082-0.586,0.089-0.873,0.051c0.805-0.95,1.466-2.022,1.935-3.18c0.303-0.751,0.534-1.531,0.667-2.331
	c0.134-0.811,0.166-1.617,0.141-2.437c-0.059-0.793-0.16-1.576-0.36-2.349c-0.146-0.565-0.331-1.117-0.53-1.665
	c-0.081,0.022-0.112,0.005-0.094,0.087l0.085,0.387c0.08,0.362,0.137,0.729,0.186,1.098c0.107,0.811,0.115,1.621,0.069,2.436
	c-0.084,0.826-0.225,1.636-0.487,2.426c-0.249,0.748-0.588,1.469-1.004,2.138c-0.748,1.2-1.741,2.24-2.902,3.046
	c-0.331,0.197-0.703,0.411-0.812,0.45c-0.839,0.303-1.763,0.427-2.666,0.301c0.544-0.547,1.026-1.156,1.431-1.825
	c0.833-1.38,1.25-2.96,1.273-4.567c0.02-1.378-0.293-2.715-0.727-4.014c-0.048,0.013-0.113,0.002-0.103,0.06
	c0.02,0.105,0.04,0.207,0.059,0.312c0.062,0.327,0.113,0.655,0.146,0.987c0.069,0.715,0.095,1.434,0.022,2.149
	c-0.159,1.568-0.704,3.082-1.696,4.321c-0.611,0.763-1.349,1.398-2.173,1.904c-0.709,0.39-2.03,0.969-3.637,0.99
	c0.104-0.1,0.205-0.202,0.304-0.31c1.105-1.191,1.774-2.685,1.955-4.299c0.13-1.424-0.115-2.793-0.525-4.152
	c-0.037,0.009-0.113,0.003-0.106,0.047c0.012,0.077,0.024,0.155,0.037,0.232c0.045,0.294,0.082,0.587,0.109,0.883
	c0.06,0.64,0.051,1.286-0.02,1.924c-0.176,1.588-0.874,3.095-2.065,4.176c-0.831,0.752-1.813,1.272-2.861,1.629
	c-0.048,0.007-0.098,0.014-0.151,0.023c-2.45,0.341-3.633-0.523-3.633-0.523s-1.575,0.234-2.364,0.338
	c-3.038,0.407-3.438,0.609-6.506,0.582c-6.029-0.051-14.85-6.18-18.963-9.996c-3.143-2.915-5.382-5.192-7.121-8.964
	c-2.173-4.709-4.084-9.332-6.911-13.553c0,0-7.145-13.356-19.754-16.961c-0.458-0.13-0.954-0.265-1.482-0.404v8.669
	c0,2.353,0.064,4.373,0.2,6.057c0.134,1.686,0.467,3.354,1.001,5.012c0.532,1.657,1.417,3.1,2.645,4.328v24.38H1.057v-24.39
	c2.085-0.854,3.473-2.537,4.169-5.053c0.695-2.514,1.042-5.696,1.042-9.547c0-1.658-0.014-2.98-0.041-3.971
	c-0.026-0.989-0.039-2.074-0.039-3.25V77.971c0.892-2.083,1.789-4.166,2.792-6.197c1.426-2.888,3.041-5.682,4.806-8.375
	c1.795-2.739,3.738-5.38,5.793-7.929c2.083-2.581,4.282-5.067,6.563-7.472c2.291-2.412,4.667-4.74,7.095-7.013
	c2.424-2.271,4.906-4.481,7.548-6.497c1.02-0.779,2.06-1.511,3.21-2.087c1.462-0.731,3.007-1.276,4.561-1.777
	c1.571-0.508,3.158-0.969,4.717-1.514c1.516-0.53,2.978-1.163,4.381-1.944c2.708-1.507,5.17-3.398,7.623-5.279
	c1.818-1.394,3.639-2.78,5.552-4.039c-0.007,0.16-0.015,0.319-0.017,0.479c-0.015,0.829,0.022,1.657,0.119,2.481
	c0.069,0.59,0.161,1.17,0.334,1.741c0.45,1.479,1.284,2.798,2.357,3.904c1.077,1.112,2.381,2.013,3.793,2.646
	c0.655,0.293,1.333,0.548,2.044,0.667c0.165,0.028,0.33,0.045,0.498,0.038c0.023-0.001,0.138,0.004,0.156-0.018
	c0.01-0.012-0.005-0.087-0.007-0.103c0-0.011-0.001-0.102-0.01-0.102c-0.055,0.002-0.111-0.005-0.165-0.015
	c-0.143-0.024-0.28-0.068-0.415-0.116c-0.618-0.221-1.2-0.549-1.751-0.901c-0.623-0.397-1.212-0.845-1.762-1.337
	c-1.084-0.969-2.039-2.119-2.664-3.438c-0.329-0.695-0.561-1.434-0.671-2.195c-0.115-0.8-0.112-1.627-0.083-2.433
	c0.059-1.656,0.331-3.297,0.727-4.904c0.391-1.614,0.911-3.195,1.351-4.797c0.219-0.795,0.433-1.599,0.566-2.415
	c0.135-0.823,0.178-1.658,0.237-2.488c0.03-0.406,0.063-0.813,0.125-1.216c0.055-0.356,0.127-0.75,0.335-1.054
	c0.229-0.333,0.612-0.326,0.977-0.275c0.385,0.053,0.756,0.185,1.104,0.357c0.682,0.338,1.288,0.819,1.844,1.333
	c0.571,0.528,1.098,1.101,1.594,1.699c1.775,2.133,3.267,4.51,4.586,6.946c0.052-0.027,0.104-0.053,0.157-0.081
	c0.049-0.025-0.001-0.101-0.015-0.145c-0.072-0.228-0.148-0.454-0.227-0.681c-0.19-0.54-0.396-1.075-0.617-1.603
	c2.026-0.797,4.14-1.355,6.28-1.757c0.003,0.005,0.005,0.011,0.007,0.017c1.251-0.238,2.528-0.43,3.806-0.578
	c0.354-0.051,0.706-0.103,1.059-0.152c1.635-0.223,4.938-0.288,6.586-0.355c2.983-0.125,5.419,0.359,8.232,1.376
	c1.235,0.446,3.94,1.295,5.89,2.485c1.328,0.809,2.303,1.777,2.226,2.88c2.214-0.259,4.673,0.051,5.066,2.594
	c0.006,0.046,3.097,0.625,5.703,1.537c3.335,1.165,5.828,2.826,6.697,5.694c-0.691-0.159-1.784-0.839-2.099-1.822
	c-0.116-0.027-0.235-0.04-0.36-0.039c-1.948,0.029-3.179,1.593-5.296,1.554c1.326,0.621,3.217,3.272,4.587,1.968
	c1.841-1.75,2.999,1.773,0.804,2.274c1.186,1.173,1.977,2.586,1.99,4.279c-0.49,1.912-1.307,3.685-2.679,4.7
	c-0.128,0.093-0.255,0.18-0.382,0.26c-0.285,1.851-1.631,4.738-2.418,4.679c-0.522-0.04-0.623-2.07-0.624-3.603
	c-1.239,0.224-2.52,0.346-3.86,0.87c-2.474,0.969-3.895,3.784-4.146,5.485c-0.413,2.798,0.083,6.235,1.327,7.242
	c0.416,0.336,0.837,0.682,1.277,0.999c1.067-1.075,2.498-2.375,2.89-2.043c0.405,0.343,0.052,1.818-0.556,3.209
	c2.971,1.019,2.543,2.596,0.191,6.074c-1.893,2.796-5.6,4.186-8.938,2.449c-2.389-1.244-4.041-3.407-6.535-4.669
	c-1.717-0.867-3.814-1.735-5.955-2.233c-2.24-0.761-4.499-1.467-6.744-2.211c-1.582-0.526-3.162-1.063-4.716-1.668
	c-0.752-0.293-1.499-0.601-2.227-0.951c-0.566-0.272-1.134-0.563-1.646-0.931c-1.229-0.881-2.3-1.929-3.19-3.154
	c-0.791-1.087-1.416-2.268-1.951-3.499c-0.117,0.046-0.106,0.035-0.065,0.151c0.057,0.161,0.113,0.32,0.173,0.48
	c0.128,0.341,0.266,0.678,0.415,1.011c0.314,0.708,0.675,1.396,1.084,2.054c0.822,1.318,1.836,2.486,3.032,3.477
	c0.452,0.375,0.957,0.685,1.466,0.976c0.705,0.402,1.435,0.76,2.172,1.101c2.304,1.064,4.675,1.979,7.046,2.886
	c-0.493,0.087-0.971,0.216-1.431,0.392c-8.633,3.315-14.566,11.136-16.319,16.938c-0.506-0.628-1.011-1.255-1.518-1.883
	c-0.507-0.629-1.059-1.23-1.599-1.83c-0.947-1.051-1.952-2.086-3.05-2.98c-0.01,0.011-0.078,0.082-0.073,0.087
	c0.459,0.461,0.875,0.959,1.296,1.456c0.507,0.599,0.991,1.231,1.448,1.869c0.467,0.65,0.946,1.3,1.378,1.972
	c0.448,0.694,0.896,1.388,1.342,2.082c0.446,0.691,0.848,1.416,1.262,2.127c0.402,0.692,0.798,1.383,1.177,2.089
	c0.111,0.207,0.223,0.414,0.334,0.622c0.706,1.619,1.475,3.335,2.125,4.669c2.711,5.553,6.014,12.09,8.794,17.61
	c1.848,3.668,3.487,7.968,6.002,11.25c3.715,4.847,9.025,10.122,13.557,14.17c1.816,1.626,5.119,4.48,7.713,4.601
	c2.645,0.124,3.748-1.094,6.25,0.009C132.468,131.411,136.453,135.421,136.658,138.637 M118.862,31.998
	c0.748-0.312,1.503-0.6,2.261-0.885c0.76-0.262,1.521-0.513,2.295-0.73c0.576-0.162,1.159-0.28,1.748-0.389
	c-0.011-0.109,0.013-0.128-0.093-0.127c-1.486,0.02-2.945,0.241-4.392,0.58c-0.796,0.187-1.579,0.413-2.362,0.648
	c-0.777,0.233-1.569,0.444-2.313,0.773c-0.719,0.318-1.411,0.724-2.039,1.195c-0.292,0.219-0.569,0.452-0.833,0.704
	c-0.06,0.057-0.539,0.511-0.49,0.581c0.009,0.013,0.052,0.091,0.067,0.087c0.058-0.016,0.116-0.032,0.175-0.05
	c0.153-0.044,0.305-0.098,0.457-0.145c0.352-0.106,0.7-0.225,1.049-0.345c0.75-0.261,1.506-0.522,2.235-0.844
	C117.381,32.72,118.099,32.31,118.862,31.998 M126.072,32.101c-0.093,0.024-0.187,0.048-0.28,0.073
	c-0.269,0.063-0.535,0.165-0.793,0.261c-0.535,0.2-1.07,0.439-1.559,0.732c-0.258,0.151-0.513,0.309-0.768,0.467
	c-0.253,0.157-0.517,0.303-0.752,0.488c-0.443,0.347-0.778,0.857-0.976,1.38c-0.063,0.171-0.112,0.349-0.138,0.529
	c-0.008,0.056-0.06,0.274-0.007,0.307c0.018,0.011,0.078,0.063,0.097,0.056c0.059-0.023,0.116-0.051,0.172-0.08
	c0.157-0.079,0.313-0.164,0.464-0.257c0.316-0.195,0.632-0.396,0.919-0.632c0.302-0.246,0.534-0.545,0.79-0.834
	c0.384-0.434,0.841-0.817,1.286-1.186c0.514-0.426,1.049-0.819,1.605-1.191C126.124,32.194,126.092,32.096,126.072,32.101
	 M115.502,29.012c-0.028,0.026-0.126,0.092-0.131,0.128c-0.003,0.024,0.034,0.076,0.044,0.098c0.024,0.054,0.252,0.013,0.31,0.01
	c0.366-0.021,0.732-0.059,1.098-0.097c0.787-0.082,1.577-0.196,2.342-0.394c0.396-0.103,0.789-0.22,1.189-0.307
	c0.397-0.085,0.799-0.145,1.201-0.21c0.798-0.104,1.593-0.218,2.396-0.274c0.627-0.044,1.255-0.069,1.883-0.085
	c0.005-0.06,0.039-0.122-0.026-0.134c-0.123-0.023-0.246-0.047-0.368-0.071c-0.334-0.064-0.671-0.116-1.01-0.16
	c-0.748-0.099-1.503-0.149-2.256-0.165c-0.84-0.02-1.679,0.035-2.518,0.078c-0.8,0.042-1.558,0.167-2.306,0.463
	C116.679,28.158,116.032,28.516,115.502,29.012 M104.078,18.934c0.015,0.043,2.943-0.817,3.474-0.945
	c0.385-0.092,0.773-0.193,1.164-0.289c-1.158,0.688-1.444,1.551-1.444,1.551c1.621,0.382,2.913,0.781,3.934,1.154
	c0.14-1.162,0.758-2.037,1.443-1.997c0.734,0.042,1.401,1.124,1.326,2.405c-0.016,0.277-0.067,0.539-0.142,0.781
	c0.571,0.332,0.797,0.542,0.797,0.542c0.437-1.524,0.055-2.743-0.317-3.472c1.246,0.137,2.432-1.611,2.627-2.665
	c0.19-1.029-0.583-1.912-1.32-2.528c-1.267-1.057-3.011-1.875-4.68-1.932c-0.247,0.166,0.466,0.349,0.621,0.42
	c0.367,0.172,0.725,0.365,1.071,0.575c0.691,0.419,1.352,0.898,1.939,1.455c0.409,0.389,1.103,1.004,1.126,1.609
	c0.025,0.622-0.758,1.292-1.22,1.671c-0.891-0.42-1.813-0.809-2.759-1.086c-0.86-0.251-1.497-0.104-2.349,0.152
	c-1.047,0.314-2.078,0.705-3.062,1.182C106.044,17.646,103.981,18.638,104.078,18.934"/>
</svg>
